ffmpeg version 3.4.8-0ubuntu0.2 Copyright (c) 2000-2020 the FFmpeg developers
  built with gcc 7 (Ubuntu 7.5.0-3ubuntu1~18.04)
  configuration: --prefix=/usr --extra-version=0ubuntu0.2 --toolchain=hardened --libdir=/usr/lib/x86_64-linux-gnu --incdir=/usr/include/x86_64-linux-gnu --enable-gpl --disable-stripping --enable-avresample --enable-avisynth --enable-gnutls --enable-ladspa --enable-libass --enable-libbluray --enable-libbs2b --enable-libcaca --enable-libcdio --enable-libflite --enable-libfontconfig --enable-libfreetype --enable-libfribidi --enable-libgme --enable-libgsm --enable-libmp3lame --enable-libmysofa --enable-libopenjpeg --enable-libopenmpt --enable-libopus --enable-libpulse --enable-librubberband --enable-librsvg --enable-libshine --enable-libsnappy --enable-libsoxr --enable-libspeex --enable-libssh --enable-libtheora --enable-libtwolame --enable-libvorbis --enable-libvpx --enable-libwavpack --enable-libwebp --enable-libx265 --enable-libxml2 --enable-libxvid --enable-libzmq --enable-libzvbi --enable-omx --enable-openal --enable-opengl --enable-sdl2 --enable-libdc1394 --enable-libdrm --enable-libiec61883 --enable-chromaprint --enable-frei0r --enable-libopencv --enable-libx264 --enable-shared
  libavutil      55. 78.100 / 55. 78.100
  libavcodec     57.107.100 / 57.107.100
  libavformat    57. 83.100 / 57. 83.100
  libavdevice    57. 10.100 / 57. 10.100
  libavfilter     6.107.100 /  6.107.100
  libavresample   3.  7.  0 /  3.  7.  0
  libswscale      4.  8.100 /  4.  8.100
  libswresample   2.  9.100 /  2.  9.100
  libpostproc    54.  7.100 / 54.  7.100
[rawvideo @ 0x55aebe77fa20] Estimating duration from bitrate, this may be inaccurate
Input #0, rawvideo, from '../../SVC-Encoder-20220109T061506Z-001/SVC-Encoder/Dataset/RollerCoaster/6f_2x2/tile_yuv/f1_t3_480x480.yuv':
  Duration: 00:00:10.00, start: 0.000000, bitrate: 82944 kb/s
    Stream #0:0: Video: rawvideo (I420 / 0x30323449), yuv420p, 480x480, 82944 kb/s, 30 tbr, 30 tbn, 30 tbc
Stream mapping:
  Stream #0:0 -> #0:0 (rawvideo (native) -> h264 (libx264))
Press [q] to stop, [?] for help
[libx264 @ 0x55aebe78cc60] using cpu capabilities: MMX2 SSE2Fast LZCNT SSSE3 SSE4.2 AVX
[libx264 @ 0x55aebe78cc60] profile High, level 3.0
Output #0, rawvideo, to 'RollerCoaster_f1_t3_480x480_x264_QP_32.h264':
  Metadata:
    encoder         : Lavf57.83.100
    Stream #0:0: Video: h264 (libx264), yuv420p, 480x480, q=-1--1, 30 fps, 30 tbn, 30 tbc
    Metadata:
      encoder         : Lavc57.107.100 libx264
    Side data:
      cpb: bitrate max/min/avg: 0/0/0 buffer size: 0 vbv_delay: -1
frame=  112 fps=0.0 q=38.0 PSNR=Y:nan U:nan V:nan *:nan size=      89kB time=00:00:02.30 bitrate= 315.6kbits/s speed=4.58x    frame=  189 fps=188 q=38.0 PSNR=Y:nan U:nan V:nan *:nan size=     168kB time=00:00:04.86 bitrate= 283.1kbits/s speed=4.85x    frame=  273 fps=181 q=38.0 PSNR=Y:nan U:nan V:nan *:nan size=     254kB time=00:00:07.66 bitrate= 271.0kbits/s speed=5.09x    frame=  300 fps=160 q=38.0 LPSNR=Y:inf U:inf V:inf *:inf size=     330kB time=00:00:09.93 bitrate= 272.3kbits/s speed=5.28x    
video:330kB audio:0kB subtitle:0kB other streams:0kB global headers:0kB muxing overhead: 0.000000%
[libx264 @ 0x55aebe78cc60] frame I:2     Avg QP:30.06  size: 18062  PSNR Mean Y:36.98 U:44.43 V:45.03 Avg:38.39 Global:38.30
[libx264 @ 0x55aebe78cc60] frame P:76    Avg QP:31.77  size:  2755  PSNR Mean Y:35.46 U:44.35 V:44.70 Avg:36.96 Global:36.92
[libx264 @ 0x55aebe78cc60] frame B:222   Avg QP:37.46  size:   417  PSNR Mean Y:34.95 U:44.22 V:44.60 Avg:36.47 Global:36.46
[libx264 @ 0x55aebe78cc60] consecutive B-frames:  1.3%  0.0%  0.0% 98.7%
[libx264 @ 0x55aebe78cc60] mb I  I16..4:  9.7% 64.7% 25.6%
[libx264 @ 0x55aebe78cc60] mb P  I16..4:  0.4%  1.1%  0.3%  P16..4: 40.2% 15.4%  6.0%  0.0%  0.0%    skip:36.7%
[libx264 @ 0x55aebe78cc60] mb B  I16..4:  0.0%  0.0%  0.0%  B16..8: 30.7%  1.7%  0.1%  direct: 0.1%  skip:67.4%  L0:35.6% L1:62.0% BI: 2.4%
[libx264 @ 0x55aebe78cc60] 8x8 transform intra:62.3% inter:70.2%
[libx264 @ 0x55aebe78cc60] coded y,uvDC,uvAC intra: 67.7% 57.2% 14.1% inter: 5.4% 2.1% 0.0%
[libx264 @ 0x55aebe78cc60] i16 v,h,dc,p: 19% 30% 17% 34%
[libx264 @ 0x55aebe78cc60] i8 v,h,dc,ddl,ddr,vr,hd,vl,hu:  9% 17% 16%  5% 16% 10% 11%  8%  9%
[libx264 @ 0x55aebe78cc60] i4 v,h,dc,ddl,ddr,vr,hd,vl,hu: 17% 18% 14%  5% 15% 11% 10%  5%  4%
[libx264 @ 0x55aebe78cc60] i8c dc,h,v,p: 57% 16% 16% 11%
[libx264 @ 0x55aebe78cc60] Weighted P-Frames: Y:0.0% UV:0.0%
[libx264 @ 0x55aebe78cc60] ref P L0: 60.3% 17.0% 17.6%  5.1%
[libx264 @ 0x55aebe78cc60] ref B L0: 81.9% 15.0%  3.1%
[libx264 @ 0x55aebe78cc60] ref B L1: 85.7% 14.3%
[libx264 @ 0x55aebe78cc60] PSNR Mean Y:35.091 U:44.257 V:44.625 Avg:36.605 Global:36.581 kb/s:270.45
